<?xml version="1.0" encoding="UTF-8" standalone="no"?>
<!DOCTYPE svg PUBLIC "-//W3C//DTD SVG 1.1//EN"
 "http://www.w3.org/Graphics/SVG/1.1/DTD/svg11.dtd">
<!-- Generated by graphviz version 2.44.0 (0)
 -->
<!-- Title: dag Pages: 1 -->
<svg width="511pt" height="702pt"
 viewBox="0.00 0.00 510.51 702.00" xmlns="http://www.w3.org/2000/svg" xmlns:xlink="http://www.w3.org/1999/xlink">
<g id="graph0" class="graph" transform="scale(1 1) rotate(0) translate(4 698)">
<title>dag</title>
<polygon fill="white" stroke="transparent" points="-4,4 -4,-698 506.51,-698 506.51,4 -4,4"/>
<!-- v0 -->
<g id="node1" class="node">
<title>v0</title>
<ellipse fill="black" stroke="black" cx="300.3" cy="-673.6" rx="3.6" ry="3.6"/>
<text text-anchor="middle" x="245.57" y="-681.4" font-family="Times-Roman" font-size="14.00">Channel.fromPath</text>
</g>
<!-- v1 -->
<g id="node2" class="node">
<title>v1</title>
<ellipse fill="none" stroke="black" cx="300.3" cy="-629.5" rx="3.5" ry="3.5"/>
<text text-anchor="middle" x="278.14" y="-637.2" font-family="Times-Roman" font-size="14.00">collect</text>
</g>
<!-- v0&#45;&gt;v1 -->
<g id="edge1" class="edge">
<title>v0&#45;&gt;v1</title>
<path fill="none" stroke="black" d="M300.3,-669.84C300.3,-664.55 300.3,-652.68 300.3,-643.35"/>
<polygon fill="black" stroke="black" points="303.8,-643.33 300.3,-633.33 296.8,-643.33 303.8,-643.33"/>
</g>
<!-- v2 -->
<g id="node3" class="node">
<title>v2</title>
<ellipse fill="none" stroke="black" cx="300.3" cy="-585.4" rx="3.5" ry="3.5"/>
<text text-anchor="middle" x="284.75" y="-593.1" font-family="Times-Roman" font-size="14.00">map</text>
</g>
<!-- v1&#45;&gt;v2 -->
<g id="edge2" class="edge">
<title>v1&#45;&gt;v2</title>
<path fill="none" stroke="black" d="M300.3,-625.74C300.3,-620.45 300.3,-608.58 300.3,-599.25"/>
<polygon fill="black" stroke="black" points="303.8,-599.23 300.3,-589.23 296.8,-599.23 303.8,-599.23"/>
</g>
<!-- v4 -->
<g id="node4" class="node">
<title>v4</title>
<ellipse fill="none" stroke="black" cx="444.3" cy="-511" rx="48.65" ry="18"/>
<text text-anchor="middle" x="444.3" y="-506.8" font-family="Times-Roman" font-size="14.00">extract_sj</text>
</g>
<!-- v2&#45;&gt;v4 -->
<g id="edge3" class="edge">
<title>v2&#45;&gt;v4</title>
<path fill="none" stroke="black" d="M303.74,-584C314.99,-582.58 351.47,-577.16 378.3,-563.8 393.35,-556.31 408.24,-545.05 420.05,-534.94"/>
<polygon fill="black" stroke="black" points="422.53,-537.43 427.71,-528.18 417.9,-532.18 422.53,-537.43"/>
<text text-anchor="middle" x="426.46" y="-551.2" font-family="Times-Roman" font-size="14.00">bam_ch</text>
</g>
<!-- v5 -->
<g id="node7" class="node">
<title>v5</title>
<ellipse fill="none" stroke="black" cx="300.3" cy="-511" rx="39.4" ry="18"/>
<text text-anchor="middle" x="300.3" y="-506.8" font-family="Times-Roman" font-size="14.00">paraclu</text>
</g>
<!-- v2&#45;&gt;v5 -->
<g id="edge6" class="edge">
<title>v2&#45;&gt;v5</title>
<path fill="none" stroke="black" d="M300.3,-581.65C300.3,-574.7 300.3,-555.82 300.3,-539.47"/>
<polygon fill="black" stroke="black" points="303.8,-539.24 300.3,-529.24 296.8,-539.24 303.8,-539.24"/>
<text text-anchor="middle" x="322.46" y="-551.2" font-family="Times-Roman" font-size="14.00">bam_ch</text>
</g>
<!-- v6 -->
<g id="node8" class="node">
<title>v6</title>
<ellipse fill="none" stroke="black" cx="269.3" cy="-447.6" rx="3.5" ry="3.5"/>
<text text-anchor="middle" x="254.91" y="-455.3" font-family="Times-Roman" font-size="14.00">join</text>
</g>
<!-- v2&#45;&gt;v6 -->
<g id="edge8" class="edge">
<title>v2&#45;&gt;v6</title>
<path fill="none" stroke="black" d="M296.93,-583.64C282.84,-580.25 228.43,-565.11 207.98,-529 200.1,-515.08 200.71,-507.25 207.98,-493 218.17,-473.05 241.97,-459.98 256.74,-453.48"/>
<polygon fill="black" stroke="black" points="258.25,-456.64 266.22,-449.66 255.64,-450.15 258.25,-456.64"/>
<text text-anchor="middle" x="230.46" y="-506.8" font-family="Times-Roman" font-size="14.00">bam_ch</text>
</g>
<!-- v16 -->
<g id="node13" class="node">
<title>v16</title>
<ellipse fill="none" stroke="black" cx="310.3" cy="-294.1" rx="3.5" ry="3.5"/>
<text text-anchor="middle" x="295.91" y="-301.8" font-family="Times-Roman" font-size="14.00">join</text>
</g>
<!-- v2&#45;&gt;v16 -->
<g id="edge21" class="edge">
<title>v2&#45;&gt;v16</title>
<path fill="none" stroke="black" d="M303.61,-583.9C312.2,-582.44 335.45,-577.36 348.3,-563.8 365.17,-546 367.3,-536.52 367.3,-512 367.3,-512 367.3,-512 367.3,-367.4 367.3,-338.29 338.46,-314.01 321.81,-302.42"/>
<polygon fill="black" stroke="black" points="323.34,-299.24 313.05,-296.71 319.52,-305.1 323.34,-299.24"/>
<text text-anchor="middle" x="389.46" y="-443.4" font-family="Times-Roman" font-size="14.00">bam_ch</text>
</g>
<!-- v13 -->
<g id="node16" class="node">
<title>v13</title>
<ellipse fill="none" stroke="black" cx="81.3" cy="-511" rx="81.1" ry="18"/>
<text text-anchor="middle" x="81.3" y="-506.8" font-family="Times-Roman" font-size="14.00">get_chromosomes</text>
</g>
<!-- v2&#45;&gt;v13 -->
<g id="edge17" class="edge">
<title>v2&#45;&gt;v13</title>
<path fill="none" stroke="black" d="M296.86,-584.23C276.28,-583.19 169.5,-577.18 139.98,-563.8 125.84,-557.39 112.63,-546.38 102.34,-536.16"/>
<polygon fill="black" stroke="black" points="104.84,-533.71 95.39,-528.93 99.8,-538.56 104.84,-533.71"/>
<text text-anchor="middle" x="162.46" y="-551.2" font-family="Times-Roman" font-size="14.00">bam_ch</text>
</g>
<!-- v18 -->
<g id="node6" class="node">
<title>v18</title>
<ellipse fill="none" stroke="black" cx="326.3" cy="-177.1" rx="3.5" ry="3.5"/>
<text text-anchor="middle" x="311.91" y="-184.8" font-family="Times-Roman" font-size="14.00">join</text>
</g>
<!-- v4&#45;&gt;v18 -->
<g id="edge5" class="edge">
<title>v4&#45;&gt;v18</title>
<path fill="none" stroke="black" d="M443.01,-492.81C442.2,-480.5 441.3,-463.54 441.3,-448.6 441.3,-448.6 441.3,-448.6 441.3,-234.6 441.3,-190.03 370.85,-180.62 340.23,-178.63"/>
<polygon fill="black" stroke="black" points="340.02,-175.12 329.87,-178.15 339.7,-182.11 340.02,-175.12"/>
</g>
<!-- v3 -->
<g id="node5" class="node">
<title>v3</title>
<ellipse fill="black" stroke="black" cx="467.3" cy="-585.4" rx="3.6" ry="3.6"/>
</g>
<!-- v3&#45;&gt;v4 -->
<g id="edge4" class="edge">
<title>v3&#45;&gt;v4</title>
<path fill="none" stroke="black" d="M466.43,-581.65C464.19,-574.59 458.03,-555.23 452.78,-538.7"/>
<polygon fill="black" stroke="black" points="456.04,-537.39 449.67,-528.91 449.37,-539.5 456.04,-537.39"/>
<text text-anchor="middle" x="481.91" y="-551.2" font-family="Times-Roman" font-size="14.00">gtf_file</text>
</g>
<!-- v19 -->
<g id="node19" class="node">
<title>v19</title>
<ellipse fill="none" stroke="black" cx="125.3" cy="-133" rx="3.5" ry="3.5"/>
<text text-anchor="middle" x="97.7" y="-140.7" font-family="Times-Roman" font-size="14.00">combine</text>
</g>
<!-- v18&#45;&gt;v19 -->
<g id="edge25" class="edge">
<title>v18&#45;&gt;v19</title>
<path fill="none" stroke="black" d="M323.14,-175.44C301.92,-170.99 179.6,-145.37 138.65,-136.8"/>
<polygon fill="black" stroke="black" points="139.11,-133.32 128.6,-134.69 137.67,-140.17 139.11,-133.32"/>
</g>
<!-- v5&#45;&gt;v6 -->
<g id="edge7" class="edge">
<title>v5&#45;&gt;v6</title>
<path fill="none" stroke="black" d="M291.83,-493.22C286.53,-482.72 279.83,-469.46 275.13,-460.14"/>
<polygon fill="black" stroke="black" points="278.23,-458.51 270.59,-451.16 271.98,-461.66 278.23,-458.51"/>
</g>
<!-- v8 -->
<g id="node9" class="node">
<title>v8</title>
<ellipse fill="none" stroke="black" cx="258.3" cy="-368.4" rx="80.44" ry="18"/>
<text text-anchor="middle" x="258.3" y="-364.2" font-family="Times-Roman" font-size="14.00">peak_connections</text>
</g>
<!-- v6&#45;&gt;v8 -->
<g id="edge9" class="edge">
<title>v6&#45;&gt;v8</title>
<path fill="none" stroke="black" d="M268.94,-444.03C267.89,-436.68 264.79,-414.94 262.21,-396.8"/>
<polygon fill="black" stroke="black" points="265.64,-396.08 260.76,-386.68 258.71,-397.07 265.64,-396.08"/>
</g>
<!-- v9 -->
<g id="node11" class="node">
<title>v9</title>
<ellipse fill="black" stroke="black" cx="258.3" cy="-294.1" rx="1.8" ry="1.8"/>
</g>
<!-- v8&#45;&gt;v9 -->
<g id="edge11" class="edge">
<title>v8&#45;&gt;v9</title>
<path fill="none" stroke="black" d="M258.3,-350.27C258.3,-336.64 258.3,-317.98 258.3,-306.23"/>
<polygon fill="black" stroke="black" points="261.8,-305.95 258.3,-295.95 254.8,-305.95 261.8,-305.95"/>
<text text-anchor="middle" x="279.3" y="-319.8" font-family="Times-Roman" font-size="14.00">bam_id</text>
</g>
<!-- v10 -->
<g id="node12" class="node">
<title>v10</title>
<ellipse fill="none" stroke="black" cx="216.3" cy="-294.1" rx="3.5" ry="3.5"/>
<text text-anchor="middle" x="201.91" y="-301.8" font-family="Times-Roman" font-size="14.00">join</text>
</g>
<!-- v8&#45;&gt;v10 -->
<g id="edge12" class="edge">
<title>v8&#45;&gt;v10</title>
<path fill="none" stroke="black" d="M242.76,-350.63C233.63,-337.4 223.28,-319.24 218.2,-307.35"/>
<polygon fill="black" stroke="black" points="221.42,-305.9 215.06,-297.42 214.74,-308.01 221.42,-305.9"/>
</g>
<!-- v8&#45;&gt;v10 -->
<g id="edge13" class="edge">
<title>v8&#45;&gt;v10</title>
<path fill="none" stroke="black" d="M254.19,-350.27C247.31,-335.8 235.21,-315.65 226.2,-304.13"/>
<polygon fill="black" stroke="black" points="228.62,-301.6 219.28,-296.59 223.46,-306.33 228.62,-301.6"/>
</g>
<!-- v8&#45;&gt;v16 -->
<g id="edge14" class="edge">
<title>v8&#45;&gt;v16</title>
<path fill="none" stroke="black" d="M283.72,-351.22C290.29,-345.94 296.79,-339.57 301.3,-332.4 305.94,-325.03 308.19,-315.47 309.28,-307.87"/>
<polygon fill="black" stroke="black" points="312.79,-307.95 310.23,-297.67 305.82,-307.3 312.79,-307.95"/>
</g>
<!-- v17 -->
<g id="node20" class="node">
<title>v17</title>
<ellipse fill="none" stroke="black" cx="326.3" cy="-235.6" rx="3.5" ry="3.5"/>
<text text-anchor="middle" x="311.91" y="-243.3" font-family="Times-Roman" font-size="14.00">join</text>
</g>
<!-- v8&#45;&gt;v17 -->
<g id="edge23" class="edge">
<title>v8&#45;&gt;v17</title>
<path fill="none" stroke="black" d="M296.39,-352.51C305.16,-347.39 313.58,-340.77 319.3,-332.4 336.59,-307.1 332.67,-268.77 329.08,-249.14"/>
<polygon fill="black" stroke="black" points="332.48,-248.33 326.99,-239.27 325.63,-249.78 332.48,-248.33"/>
</g>
<!-- v7 -->
<g id="node10" class="node">
<title>v7</title>
<ellipse fill="black" stroke="black" cx="213.3" cy="-447.6" rx="3.6" ry="3.6"/>
</g>
<!-- v7&#45;&gt;v8 -->
<g id="edge10" class="edge">
<title>v7&#45;&gt;v8</title>
<path fill="none" stroke="black" d="M213.04,-443.73C212.54,-436.61 212,-417.72 219.09,-404.4 221.28,-400.3 224.14,-396.45 227.33,-392.91"/>
<polygon fill="black" stroke="black" points="230,-395.18 234.68,-385.68 225.1,-390.19 230,-395.18"/>
<text text-anchor="middle" x="239.91" y="-408.6" font-family="Times-Roman" font-size="14.00">gtf_file</text>
</g>
<!-- v11 -->
<g id="node14" class="node">
<title>v11</title>
<ellipse fill="none" stroke="black" cx="216.3" cy="-235.6" rx="40.01" ry="18"/>
<text text-anchor="middle" x="216.3" y="-231.4" font-family="Times-Roman" font-size="14.00">plot_qc</text>
</g>
<!-- v10&#45;&gt;v11 -->
<g id="edge15" class="edge">
<title>v10&#45;&gt;v11</title>
<path fill="none" stroke="black" d="M216.3,-290.37C216.3,-285.43 216.3,-274.5 216.3,-263.77"/>
<polygon fill="black" stroke="black" points="219.8,-263.75 216.3,-253.75 212.8,-263.75 219.8,-263.75"/>
</g>
<!-- v16&#45;&gt;v17 -->
<g id="edge22" class="edge">
<title>v16&#45;&gt;v17</title>
<path fill="none" stroke="black" d="M311.07,-290.37C313.16,-283.02 319,-262.39 322.81,-248.93"/>
<polygon fill="black" stroke="black" points="326.22,-249.74 325.57,-239.17 319.48,-247.84 326.22,-249.74"/>
</g>
<!-- v12 -->
<g id="node15" class="node">
<title>v12</title>
<ellipse fill="black" stroke="black" cx="216.3" cy="-177.1" rx="1.8" ry="1.8"/>
</g>
<!-- v11&#45;&gt;v12 -->
<g id="edge16" class="edge">
<title>v11&#45;&gt;v12</title>
<path fill="none" stroke="black" d="M216.3,-217.34C216.3,-208.25 216.3,-197.37 216.3,-189.37"/>
<polygon fill="black" stroke="black" points="219.8,-189.1 216.3,-179.1 212.8,-189.1 219.8,-189.1"/>
</g>
<!-- v14 -->
<g id="node17" class="node">
<title>v14</title>
<ellipse fill="none" stroke="black" cx="106.3" cy="-447.6" rx="3.5" ry="3.5"/>
<text text-anchor="middle" x="80.64" y="-455.3" font-family="Times-Roman" font-size="14.00">flatMap</text>
</g>
<!-- v13&#45;&gt;v14 -->
<g id="edge18" class="edge">
<title>v13&#45;&gt;v14</title>
<path fill="none" stroke="black" d="M88.27,-492.9C92.44,-482.63 97.66,-469.83 101.4,-460.63"/>
<polygon fill="black" stroke="black" points="104.74,-461.71 105.27,-451.13 98.26,-459.07 104.74,-461.71"/>
</g>
<!-- v15 -->
<g id="node18" class="node">
<title>v15</title>
<ellipse fill="none" stroke="black" cx="111.3" cy="-324" rx="3.5" ry="3.5"/>
<text text-anchor="middle" x="94.2" y="-331.7" font-family="Times-Roman" font-size="14.00">filter</text>
</g>
<!-- v14&#45;&gt;v15 -->
<g id="edge19" class="edge">
<title>v14&#45;&gt;v15</title>
<path fill="none" stroke="black" d="M106.41,-444.06C106.97,-430.4 109.65,-365.24 110.79,-337.52"/>
<polygon fill="black" stroke="black" points="114.28,-337.66 111.2,-327.53 107.29,-337.37 114.28,-337.66"/>
<text text-anchor="middle" x="130.07" y="-408.6" font-family="Times-Roman" font-size="14.00">chrs_ch</text>
</g>
<!-- v15&#45;&gt;v19 -->
<g id="edge20" class="edge">
<title>v15&#45;&gt;v19</title>
<path fill="none" stroke="black" d="M111.49,-320.27C111.98,-312.7 113.3,-290.81 113.3,-272.6 113.3,-272.6 113.3,-272.6 113.3,-176.1 113.3,-165.56 116.82,-154.09 120.05,-145.79"/>
<polygon fill="black" stroke="black" points="123.27,-147.15 124.02,-136.59 116.84,-144.38 123.27,-147.15"/>
<text text-anchor="middle" x="135.07" y="-231.4" font-family="Times-Roman" font-size="14.00">chrs_ch</text>
</g>
<!-- v21 -->
<g id="node21" class="node">
<title>v21</title>
<ellipse fill="none" stroke="black" cx="176.3" cy="-58.6" rx="37.68" ry="18"/>
<text text-anchor="middle" x="176.3" y="-54.4" font-family="Times-Roman" font-size="14.00">cadena</text>
</g>
<!-- v19&#45;&gt;v21 -->
<g id="edge26" class="edge">
<title>v19&#45;&gt;v21</title>
<path fill="none" stroke="black" d="M124.62,-129.44C123.09,-123.09 119.95,-106.27 126.22,-94.6 129.8,-87.92 135.3,-82.24 141.35,-77.52"/>
<polygon fill="black" stroke="black" points="143.57,-80.24 149.82,-71.68 139.6,-74.48 143.57,-80.24"/>
<text text-anchor="middle" x="166.34" y="-98.8" font-family="Times-Roman" font-size="14.00">cadena_inputs</text>
</g>
<!-- v17&#45;&gt;v18 -->
<g id="edge24" class="edge">
<title>v17&#45;&gt;v18</title>
<path fill="none" stroke="black" d="M326.3,-231.87C326.3,-224.59 326.3,-204.31 326.3,-190.85"/>
<polygon fill="black" stroke="black" points="329.8,-190.67 326.3,-180.67 322.8,-190.67 329.8,-190.67"/>
</g>
<!-- v22 -->
<g id="node23" class="node">
<title>v22</title>
<ellipse fill="black" stroke="black" cx="176.3" cy="-1.8" rx="1.8" ry="1.8"/>
</g>
<!-- v21&#45;&gt;v22 -->
<g id="edge28" class="edge">
<title>v21&#45;&gt;v22</title>
<path fill="none" stroke="black" d="M176.3,-40.56C176.3,-31.87 176.3,-21.56 176.3,-13.9"/>
<polygon fill="black" stroke="black" points="179.8,-13.76 176.3,-3.76 172.8,-13.76 179.8,-13.76"/>
</g>
<!-- v20 -->
<g id="node22" class="node">
<title>v20</title>
<ellipse fill="black" stroke="black" cx="228.3" cy="-133" rx="3.6" ry="3.6"/>
</g>
<!-- v20&#45;&gt;v21 -->
<g id="edge27" class="edge">
<title>v20&#45;&gt;v21</title>
<path fill="none" stroke="black" d="M227.05,-129.55C223.9,-123.43 215.23,-107.11 206.3,-94.6 203.61,-90.83 200.61,-86.99 197.57,-83.28"/>
<polygon fill="black" stroke="black" points="200.1,-80.86 190.96,-75.5 194.76,-85.39 200.1,-80.86"/>
<text text-anchor="middle" x="253.07" y="-98.8" font-family="Times-Roman" font-size="14.00">strandedness</text>
</g>
</g>
</svg>
